<svg width="24" height="24" viewBox="0 0 24 24" fill="none" xmlns="http://www.w3.org/2000/svg">
<path d="M20.3636 21.0961C23.2638 18.4499 24.5528 14.0395 23.7794 9.81808H12.2429V14.4805H18.8168C18.559 15.9926 17.6567 17.2528 16.3677 18.0718L20.3636 21.0961Z" fill="#4285F4"/>
<path d="M1.28638 17.3787C2.13421 19.0115 3.35012 20.4347 4.84245 21.5413C6.33477 22.6478 8.06457 23.4087 9.90145 23.7666C11.7383 24.1245 13.6344 24.0702 15.4466 23.6076C17.2589 23.145 18.9401 22.2862 20.3635 21.0961L16.3676 18.0718C12.9518 20.277 7.28019 19.4579 5.3467 14.2915L1.28638 17.3787Z" fill="#34A853"/>
<path d="M5.3468 14.2915C4.8312 12.7163 4.8312 11.2672 5.3468 9.69207L1.28647 6.6048C-0.195867 9.50306 -0.647014 13.5984 1.28647 17.3788L5.3468 14.2915Z" fill="#FBBC02"/>
<path d="M5.3467 9.69208C6.7646 5.34469 12.8229 2.82446 16.8832 6.54179L20.4279 3.13949C15.4008 -1.58593 5.6045 -1.39692 1.28638 6.6048L5.3467 9.69208Z" fill="#EA4335"/>
</svg>
