<svg width="138" height="52" viewBox="0 0 138 52" fill="none" xmlns="http://www.w3.org/2000/svg">
<path fill-rule="evenodd" clip-rule="evenodd" d="M33.028 12.8236C36.166 13.1507 38.8639 14.944 40.4329 17.5042V17.5155L31.9105 25.7713C30.4882 26.9443 27.8581 27.3954 25.8263 25.6923V25.6811L33.6037 17.9102C33.7166 17.8087 33.773 17.617 33.3892 17.5155C29.5513 16.8839 26.3794 19.8727 27.0454 23.6509V23.6622L25.1377 25.5344C25.0813 25.5908 25.0587 25.7149 25.1152 25.7713C26.4133 27.0006 27.8581 27.6322 30.048 27.26C32.046 28.1849 34.518 27.6886 36.0419 25.9179C36.3693 25.5344 36.8433 25.3089 37.3513 25.3089H41.5278C41.5391 25.3089 41.5391 25.3202 41.5391 25.3202C40.3878 29.5045 36.5386 32.5835 31.9782 32.5835C26.718 32.5835 22.4061 28.4781 22.0787 23.3013C21.7062 17.2109 26.9664 12.1808 33.028 12.8236Z" fill="#3FB7FB"/>
<path fill-rule="evenodd" clip-rule="evenodd" d="M19.7992 22.1171C19.7879 21.9479 19.7766 21.7787 19.7653 21.6208C19.7427 21.3727 19.7089 21.1245 19.6637 20.8765C19.6524 20.7975 19.6299 20.7185 19.6186 20.6396C19.596 20.5606 19.5847 20.4817 19.5621 20.4027V20.3915C19.5395 20.3125 19.5283 20.2336 19.5057 20.1546C19.4831 20.0757 19.4606 19.9967 19.438 19.9178C19.4041 19.7937 19.3589 19.6696 19.3251 19.5456C18.0721 15.756 14.5729 12.9815 10.385 12.7898C10.3173 12.7898 10.2496 12.7898 10.1819 12.7785C10.1029 12.7785 10.0238 12.7785 9.94482 12.7785H9.92221C9.84319 12.7785 9.76422 12.7785 9.6852 12.7785C4.3347 12.9025 0.0227051 17.2561 0.0227051 22.6133C0.0227051 22.8276 0.0339933 23.0306 0.045281 23.2337C0.0565691 23.369 0.0678568 23.5043 0.079145 23.6284C0.0904327 23.7299 0.101721 23.8314 0.113009 23.9329C0.124297 23.9893 0.124297 24.0457 0.135584 24.0908C0.383921 25.76 1.02733 27.2826 1.86264 28.5571V22.5344C1.8965 21.7787 2.02067 21.1471 2.23514 20.6058C2.23514 20.6058 2.23514 20.5945 2.24643 20.5945C2.65279 19.4892 3.38651 18.7448 4.28955 18.1132C4.3347 18.0794 4.37985 18.0455 4.425 18.023C4.72976 17.82 5.1587 17.6283 5.55379 17.4929C6.19721 17.2673 6.73901 17.1771 7.33731 17.1771C7.38244 17.1771 7.41628 17.1771 7.46146 17.1771C10.306 17.2561 12.5072 19.6809 12.5072 22.5344C12.5072 25.3879 10.2835 27.542 7.52919 27.6097C7.48402 27.6097 7.43889 27.6097 7.39372 27.6097H7.19056L7.17928 17.8877H7.16799C7.14538 17.8877 7.12282 17.8877 7.10026 17.8877C7.06637 17.8877 7.02124 17.8877 6.97607 17.8989C6.51329 17.944 6.00533 18.0343 5.59896 18.1696C4.19924 18.6658 3.05916 19.6809 2.61893 21.4065C2.59635 21.4742 2.58507 21.5419 2.57378 21.6096C2.53992 21.7674 2.50605 21.9366 2.48348 22.1058C2.4609 22.3314 2.43832 22.5682 2.42704 22.8163V26.9668V29.0646C4.19924 31.0834 6.7729 32.3918 9.66259 32.4482C9.74161 32.4482 9.82063 32.4482 9.89964 32.4482H9.92221C9.98994 32.4482 10.0577 32.4482 10.1367 32.4482C14.2794 32.3466 17.7899 29.7301 19.1671 26.0645C19.2122 25.9405 19.2574 25.8164 19.3025 25.6924C19.3477 25.5683 19.3815 25.4442 19.4154 25.3089C19.4606 25.151 19.5057 24.9931 19.5395 24.8352C19.5621 24.7563 19.5734 24.6886 19.5847 24.6096C19.6073 24.5194 19.6186 24.4404 19.6299 24.3502C19.6412 24.2712 19.6524 24.1923 19.675 24.1133C19.6976 23.9555 19.7202 23.7863 19.7427 23.6171C19.7653 23.4479 19.7766 23.29 19.7766 23.1208C19.7879 22.9517 19.7879 22.7825 19.7879 22.6133C19.7879 22.4441 19.8105 22.2862 19.7992 22.1171Z" fill="#3FB7FB"/>
<path d="M7.34847 6.54151L7.35975 12.474C3.80404 13.7259 1.45615 15.5981 0.0338636 19.399C0.0338636 12.553 0 6.84606 0 0C2.03183 0 3.87177 0.733102 5.20374 1.91734C6.52444 3.10158 7.34847 4.73695 7.34847 6.54151Z" fill="#3FB7FB"/>
<mask id="path-4-inside-1_814_284" fill="white">
<path d="M52.8552 28.268C53.8655 28.268 54.5801 28.1687 54.999 27.97C55.4179 27.7714 55.6274 27.3864 55.6274 26.8153C55.6274 26.3683 55.3563 25.9834 54.8142 25.6606C54.2721 25.3129 53.4466 24.928 52.3377 24.5058C51.4752 24.183 50.6867 23.8477 49.9721 23.5001C49.2821 23.1524 48.6907 22.7427 48.1978 22.2708C47.705 21.7742 47.3231 21.1906 47.052 20.5201C46.7809 19.8496 46.6454 19.0426 46.6454 18.0989C46.6454 16.2613 47.3231 14.8085 48.6784 13.7407C50.0337 12.6729 51.8941 12.139 54.2598 12.139C55.4426 12.139 56.5761 12.2507 57.6603 12.4742C58.7446 12.6729 59.6071 12.8964 60.2477 13.1447L59.2867 17.4657C58.646 17.2422 57.9437 17.0435 57.1798 16.8697C56.4406 16.6958 55.6027 16.6089 54.6664 16.6089C52.9414 16.6089 52.079 17.0932 52.079 18.0617C52.079 18.2851 52.1159 18.4838 52.1898 18.6576C52.2638 18.8315 52.4116 19.0053 52.6334 19.1791C52.8552 19.3281 53.1509 19.502 53.5205 19.7006C53.9148 19.8745 54.4076 20.0731 54.999 20.2966C56.2065 20.7436 57.2045 21.1906 57.993 21.6376C58.7815 22.0598 59.3976 22.5316 59.8412 23.0531C60.3093 23.5497 60.6297 24.1085 60.8022 24.7293C60.9993 25.3501 61.0979 26.0703 61.0979 26.8898C61.0979 28.8268 60.371 30.2919 58.9171 31.2852C57.4878 32.2785 55.4549 32.7752 52.8182 32.7752C51.0933 32.7752 49.6517 32.6262 48.4936 32.3282C47.36 32.0302 46.5715 31.7819 46.1279 31.5832L47.052 27.076C47.9884 27.4485 48.9494 27.7465 49.9351 27.97C50.9208 28.1687 51.8941 28.268 52.8552 28.268ZM64.2897 22.4571C64.2897 21.0416 64.5115 19.713 64.955 18.4714C65.4232 17.2049 66.0885 16.1123 66.951 15.1934C67.8135 14.2498 68.8608 13.5048 70.0929 12.9585C71.325 12.4121 72.7295 12.139 74.3066 12.139C75.3416 12.139 76.2903 12.2383 77.1528 12.437C78.0152 12.6108 78.8531 12.8716 79.6662 13.2192L78.5204 17.6519C78.0029 17.4532 77.4361 17.2794 76.8201 17.1304C76.2041 16.9814 75.5141 16.9069 74.7502 16.9069C73.1238 16.9069 71.904 17.416 71.0909 18.4341C70.3023 19.4523 69.908 20.7933 69.908 22.4571C69.908 24.2202 70.2777 25.5861 71.0169 26.5545C71.7808 27.523 73.0992 28.0073 74.972 28.0073C75.6373 28.0073 76.3519 27.9452 77.1158 27.821C77.8797 27.6969 78.582 27.4982 79.2227 27.225L79.9989 31.7695C79.3582 32.0426 78.5574 32.2785 77.5963 32.4772C76.6353 32.6759 75.5757 32.7752 74.4175 32.7752C72.6433 32.7752 71.1155 32.5145 69.8341 31.993C68.5527 31.4466 67.4931 30.7141 66.6553 29.7952C65.8421 28.8764 65.2384 27.7962 64.8441 26.5545C64.4745 25.2881 64.2897 23.9222 64.2897 22.4571ZM100.942 22.4198C100.942 23.9595 100.721 25.375 100.277 26.6663C99.8335 27.9328 99.1928 29.0254 98.355 29.9442C97.5172 30.8382 96.5069 31.5336 95.3241 32.0302C94.1659 32.5269 92.8599 32.7752 91.406 32.7752C89.9768 32.7752 88.6707 32.5269 87.4879 32.0302C86.3298 31.5336 85.3318 30.8382 84.4939 29.9442C83.6561 29.0254 83.0031 27.9328 82.5349 26.6663C82.0667 25.375 81.8326 23.9595 81.8326 22.4198C81.8326 20.8802 82.0667 19.4771 82.5349 18.2106C83.0277 16.9442 83.6931 15.8639 84.5309 14.9699C85.3934 14.076 86.4037 13.3806 87.5619 12.884C88.7447 12.3873 90.026 12.139 91.406 12.139C92.8106 12.139 94.092 12.3873 95.2501 12.884C96.4329 13.3806 97.4433 14.076 98.2811 14.9699C99.1189 15.8639 99.7719 16.9442 100.24 18.2106C100.708 19.4771 100.942 20.8802 100.942 22.4198ZM95.3241 22.4198C95.3241 20.7064 94.9791 19.3654 94.2891 18.3969C93.6238 17.4036 92.6627 16.9069 91.406 16.9069C90.1493 16.9069 89.1759 17.4036 88.4859 18.3969C87.7959 19.3654 87.451 20.7064 87.451 22.4198C87.451 24.1333 87.7959 25.4991 88.4859 26.5173C89.1759 27.5106 90.1493 28.0073 91.406 28.0073C92.6627 28.0073 93.6238 27.5106 94.2891 26.5173C94.9791 25.4991 95.3241 24.1333 95.3241 22.4198ZM116.926 17.5774C116.433 17.4532 115.854 17.3291 115.189 17.2049C114.523 17.0559 113.809 16.9814 113.045 16.9814C112.7 16.9814 112.281 17.0187 111.788 17.0932C111.32 17.1428 110.963 17.2049 110.716 17.2794V32.2537H105.209V13.7035C106.194 13.3558 107.353 13.033 108.683 12.735C110.039 12.4121 111.542 12.2507 113.193 12.2507C113.488 12.2507 113.846 12.2756 114.265 12.3252C114.684 12.3501 115.102 12.3997 115.521 12.4742C115.94 12.5239 116.359 12.5984 116.778 12.6977C117.197 12.7722 117.554 12.8716 117.85 12.9957L116.926 17.5774ZM119.517 22.6061C119.517 20.8678 119.776 19.353 120.294 18.0617C120.836 16.7455 121.538 15.6529 122.4 14.7837C123.263 13.9145 124.249 13.2565 125.358 12.8095C126.491 12.3625 127.649 12.139 128.832 12.139C131.592 12.139 133.773 12.9957 135.374 14.7092C136.976 16.3978 137.777 18.8936 137.777 22.1963C137.777 22.5192 137.765 22.8793 137.74 23.2766C137.715 23.6491 137.691 23.9843 137.666 24.2823H125.173C125.296 25.4246 125.826 26.331 126.762 27.0015C127.699 27.672 128.955 28.0073 130.532 28.0073C131.543 28.0073 132.528 27.9204 133.489 27.7465C134.475 27.5479 135.276 27.3119 135.892 27.0388L136.631 31.546C136.335 31.695 135.941 31.844 135.448 31.993C134.956 32.142 134.401 32.2661 133.785 32.3655C133.194 32.4896 132.553 32.589 131.863 32.6635C131.173 32.738 130.483 32.7752 129.793 32.7752C128.043 32.7752 126.516 32.5145 125.21 31.993C123.928 31.4715 122.856 30.7637 121.994 29.8697C121.156 28.9509 120.528 27.8707 120.109 26.629C119.715 25.3874 119.517 24.0464 119.517 22.6061ZM132.454 20.4829C132.43 20.011 132.344 19.5516 132.196 19.1046C132.072 18.6576 131.863 18.2603 131.567 17.9127C131.296 17.565 130.939 17.2794 130.495 17.0559C130.076 16.8324 129.547 16.7207 128.906 16.7207C128.29 16.7207 127.76 16.8324 127.317 17.0559C126.873 17.2546 126.503 17.5277 126.208 17.8754C125.912 18.2231 125.678 18.6328 125.505 19.1046C125.358 19.5516 125.247 20.011 125.173 20.4829H132.454Z"/>
</mask>
<path d="M52.8552 28.268C53.8655 28.268 54.5801 28.1687 54.999 27.97C55.4179 27.7714 55.6274 27.3864 55.6274 26.8153C55.6274 26.3683 55.3563 25.9834 54.8142 25.6606C54.2721 25.3129 53.4466 24.928 52.3377 24.5058C51.4752 24.183 50.6867 23.8477 49.9721 23.5001C49.2821 23.1524 48.6907 22.7427 48.1978 22.2708C47.705 21.7742 47.3231 21.1906 47.052 20.5201C46.7809 19.8496 46.6454 19.0426 46.6454 18.0989C46.6454 16.2613 47.3231 14.8085 48.6784 13.7407C50.0337 12.6729 51.8941 12.139 54.2598 12.139C55.4426 12.139 56.5761 12.2507 57.6603 12.4742C58.7446 12.6729 59.6071 12.8964 60.2477 13.1447L59.2867 17.4657C58.646 17.2422 57.9437 17.0435 57.1798 16.8697C56.4406 16.6958 55.6027 16.6089 54.6664 16.6089C52.9414 16.6089 52.079 17.0932 52.079 18.0617C52.079 18.2851 52.1159 18.4838 52.1898 18.6576C52.2638 18.8315 52.4116 19.0053 52.6334 19.1791C52.8552 19.3281 53.1509 19.502 53.5205 19.7006C53.9148 19.8745 54.4076 20.0731 54.999 20.2966C56.2065 20.7436 57.2045 21.1906 57.993 21.6376C58.7815 22.0598 59.3976 22.5316 59.8412 23.0531C60.3093 23.5497 60.6297 24.1085 60.8022 24.7293C60.9993 25.3501 61.0979 26.0703 61.0979 26.8898C61.0979 28.8268 60.371 30.2919 58.9171 31.2852C57.4878 32.2785 55.4549 32.7752 52.8182 32.7752C51.0933 32.7752 49.6517 32.6262 48.4936 32.3282C47.36 32.0302 46.5715 31.7819 46.1279 31.5832L47.052 27.076C47.9884 27.4485 48.9494 27.7465 49.9351 27.97C50.9208 28.1687 51.8941 28.268 52.8552 28.268ZM64.2897 22.4571C64.2897 21.0416 64.5115 19.713 64.955 18.4714C65.4232 17.2049 66.0885 16.1123 66.951 15.1934C67.8135 14.2498 68.8608 13.5048 70.0929 12.9585C71.325 12.4121 72.7295 12.139 74.3066 12.139C75.3416 12.139 76.2903 12.2383 77.1528 12.437C78.0152 12.6108 78.8531 12.8716 79.6662 13.2192L78.5204 17.6519C78.0029 17.4532 77.4361 17.2794 76.8201 17.1304C76.2041 16.9814 75.5141 16.9069 74.7502 16.9069C73.1238 16.9069 71.904 17.416 71.0909 18.4341C70.3023 19.4523 69.908 20.7933 69.908 22.4571C69.908 24.2202 70.2777 25.5861 71.0169 26.5545C71.7808 27.523 73.0992 28.0073 74.972 28.0073C75.6373 28.0073 76.3519 27.9452 77.1158 27.821C77.8797 27.6969 78.582 27.4982 79.2227 27.225L79.9989 31.7695C79.3582 32.0426 78.5574 32.2785 77.5963 32.4772C76.6353 32.6759 75.5757 32.7752 74.4175 32.7752C72.6433 32.7752 71.1155 32.5145 69.8341 31.993C68.5527 31.4466 67.4931 30.7141 66.6553 29.7952C65.8421 28.8764 65.2384 27.7962 64.8441 26.5545C64.4745 25.2881 64.2897 23.9222 64.2897 22.4571ZM100.942 22.4198C100.942 23.9595 100.721 25.375 100.277 26.6663C99.8335 27.9328 99.1928 29.0254 98.355 29.9442C97.5172 30.8382 96.5069 31.5336 95.3241 32.0302C94.1659 32.5269 92.8599 32.7752 91.406 32.7752C89.9768 32.7752 88.6707 32.5269 87.4879 32.0302C86.3298 31.5336 85.3318 30.8382 84.4939 29.9442C83.6561 29.0254 83.0031 27.9328 82.5349 26.6663C82.0667 25.375 81.8326 23.9595 81.8326 22.4198C81.8326 20.8802 82.0667 19.4771 82.5349 18.2106C83.0277 16.9442 83.6931 15.8639 84.5309 14.9699C85.3934 14.076 86.4037 13.3806 87.5619 12.884C88.7447 12.3873 90.026 12.139 91.406 12.139C92.8106 12.139 94.092 12.3873 95.2501 12.884C96.4329 13.3806 97.4433 14.076 98.2811 14.9699C99.1189 15.8639 99.7719 16.9442 100.24 18.2106C100.708 19.4771 100.942 20.8802 100.942 22.4198ZM95.3241 22.4198C95.3241 20.7064 94.9791 19.3654 94.2891 18.3969C93.6238 17.4036 92.6627 16.9069 91.406 16.9069C90.1493 16.9069 89.1759 17.4036 88.4859 18.3969C87.7959 19.3654 87.451 20.7064 87.451 22.4198C87.451 24.1333 87.7959 25.4991 88.4859 26.5173C89.1759 27.5106 90.1493 28.0073 91.406 28.0073C92.6627 28.0073 93.6238 27.5106 94.2891 26.5173C94.9791 25.4991 95.3241 24.1333 95.3241 22.4198ZM116.926 17.5774C116.433 17.4532 115.854 17.3291 115.189 17.2049C114.523 17.0559 113.809 16.9814 113.045 16.9814C112.7 16.9814 112.281 17.0187 111.788 17.0932C111.32 17.1428 110.963 17.2049 110.716 17.2794V32.2537H105.209V13.7035C106.194 13.3558 107.353 13.033 108.683 12.735C110.039 12.4121 111.542 12.2507 113.193 12.2507C113.488 12.2507 113.846 12.2756 114.265 12.3252C114.684 12.3501 115.102 12.3997 115.521 12.4742C115.94 12.5239 116.359 12.5984 116.778 12.6977C117.197 12.7722 117.554 12.8716 117.85 12.9957L116.926 17.5774ZM119.517 22.6061C119.517 20.8678 119.776 19.353 120.294 18.0617C120.836 16.7455 121.538 15.6529 122.4 14.7837C123.263 13.9145 124.249 13.2565 125.358 12.8095C126.491 12.3625 127.649 12.139 128.832 12.139C131.592 12.139 133.773 12.9957 135.374 14.7092C136.976 16.3978 137.777 18.8936 137.777 22.1963C137.777 22.5192 137.765 22.8793 137.74 23.2766C137.715 23.6491 137.691 23.9843 137.666 24.2823H125.173C125.296 25.4246 125.826 26.331 126.762 27.0015C127.699 27.672 128.955 28.0073 130.532 28.0073C131.543 28.0073 132.528 27.9204 133.489 27.7465C134.475 27.5479 135.276 27.3119 135.892 27.0388L136.631 31.546C136.335 31.695 135.941 31.844 135.448 31.993C134.956 32.142 134.401 32.2661 133.785 32.3655C133.194 32.4896 132.553 32.589 131.863 32.6635C131.173 32.738 130.483 32.7752 129.793 32.7752C128.043 32.7752 126.516 32.5145 125.21 31.993C123.928 31.4715 122.856 30.7637 121.994 29.8697C121.156 28.9509 120.528 27.8707 120.109 26.629C119.715 25.3874 119.517 24.0464 119.517 22.6061ZM132.454 20.4829C132.43 20.011 132.344 19.5516 132.196 19.1046C132.072 18.6576 131.863 18.2603 131.567 17.9127C131.296 17.565 130.939 17.2794 130.495 17.0559C130.076 16.8324 129.547 16.7207 128.906 16.7207C128.29 16.7207 127.76 16.8324 127.317 17.0559C126.873 17.2546 126.503 17.5277 126.208 17.8754C125.912 18.2231 125.678 18.6328 125.505 19.1046C125.358 19.5516 125.247 20.011 125.173 20.4829H132.454Z" stroke="black" stroke-width="2" mask="url(#path-4-inside-1_814_284)"/>
<rect x="30.3474" y="37.4681" width="75.9788" height="13.7011" rx="6.85055" fill="#3FB7FB"/>
<rect x="30.97" y="38.0908" width="74.7333" height="12.4555" rx="6.22777" fill="white"/>
<path d="M39.6888 39.3365L40.8073 42.7791H44.4271L41.4987 44.9067L42.6172 48.3494L39.6888 46.2217L36.7603 48.3494L37.8789 44.9067L34.9504 42.7791H38.5702L39.6888 39.3365Z" fill="black"/>
<path d="M54.013 39.3365L55.1316 42.7791H58.7514L55.8229 44.9067L56.9415 48.3494L54.013 46.2217L51.0845 48.3494L52.2031 44.9067L49.2746 42.7791H52.8944L54.013 39.3365Z" fill="black"/>
<path d="M82.6607 39.3364L83.7793 42.7791H87.3991L84.4706 44.9067L85.5892 48.3493L82.6607 46.2217L79.7322 48.3493L80.8508 44.9067L77.9223 42.7791H81.5421L82.6607 39.3364Z" fill="black"/>
<path d="M96.9844 39.3365L98.103 42.7791H101.723L98.7943 44.9067L99.9129 48.3494L96.9844 46.2217L94.0559 48.3494L95.1745 44.9067L92.246 42.7791H95.8658L96.9844 39.3365Z" fill="black"/>
<path d="M68.337 39.3365L69.4555 42.7791H73.0753L70.1469 44.9067L71.2654 48.3494L68.337 46.2217L65.4085 48.3494L66.5271 44.9067L63.5986 42.7791H67.2184L68.337 39.3365Z" fill="black"/>
</svg>
